<svg xmlns="http://www.w3.org/2000/svg" viewBox="0 0 128 128">
  <defs>
    <linearGradient id="bg" x1="0%" y1="0%" x2="100%" y2="100%">
      <stop offset="0%" style="stop-color:#2563eb"/>
      <stop offset="100%" style="stop-color:#1d4ed8"/>
    </linearGradient>
  </defs>

  <!-- Background -->
  <rect width="128" height="128" rx="24" fill="url(#bg)"/>

  <!-- Shield -->
  <path d="M64 20
           C64 20 32 28 32 28
           C32 28 32 60 32 60
           C32 85 64 108 64 108
           C64 108 96 85 96 60
           C96 60 96 28 96 28
           C96 28 64 20 64 20Z"
        fill="white"
        fill-opacity="0.2"/>

  <path d="M64 24
           C64 24 36 31 36 31
           C36 31 36 58 36 58
           C36 80 64 100 64 100
           C64 100 92 80 92 58
           C92 58 92 31 92 31
           C92 31 64 24 64 24Z"
        fill="none"
        stroke="white"
        stroke-width="3"/>

  <!-- Checkmark -->
  <path d="M52 64 L60 72 L76 52"
        fill="none"
        stroke="white"
        stroke-width="5"
        stroke-linecap="round"
        stroke-linejoin="round"/>
</svg>
